<?xml version="1.0" encoding="UTF-8"?>
<svg xmlns="http://www.w3.org/2000/svg" width="98" height="84.1" version="1.1" viewBox="0 0 98 84.1">
  <defs>
    <style>
      .cls-1 {
        fill: #3966af;
      }

      .cls-2 {
        isolation: isolate;
      }

      .cls-3 {
        fill: #d1d0d0;
      }

      .cls-4 {
        fill: #fff;
        stroke: #d1d0d0;
        stroke-linejoin: bevel;
        stroke-width: 4px;
      }
    </style>
  </defs>
  <!-- Generator: Adobe Illustrator 28.6.0, SVG Export Plug-In . SVG Version: 1.2.0 Build 709)  -->
  <g>
    <g id="Layer_1">
      <g id="Layer_1-2" data-name="Layer_1">
        <g id="_x32_4">
          <path class="cls-4" d="M29.7,21.7c5.2-8.1,14.2-13.6,24.6-13.9,16.6-.4,30.3,12.7,30.7,29.4.3,10.6-5,20.1-13.2,25.7"/>
          <path class="cls-3" d="M41.8,57c-5.2-4.3-8.6-9.5-10.4-12.5l-1.4-2.6c.5-.5,4.1-4.4,5.6-6.5,2-2.6-.9-5-.9-5,0,0-8-8.1-9.8-9.6-1.8-1.6-3.9-.7-3.9-.7-3.8,2.5-7.8,4.7-8.1,15.1,0,9.8,7.4,19.8,15.3,27.6,8,8.8,19,17.6,29.6,17.6,10.4-.2,12.5-4.2,15-8.1,0,0,.9-2.1-.7-3.9s-9.6-9.9-9.6-9.9c0,0-2.4-2.9-5-.9-2,1.5-5.5,4.7-6.3,5.5,0,0-5.9-3.2-9.4-6h0Z"/>
          <g class="cls-2">
            <path class="cls-1" d="M40.5,31.8c0-1.7.6-3.1,1.8-4.2,1.2-1.1,2.7-1.7,4.5-1.7s3.2.5,4.4,1.6c1.2,1,1.8,2.3,1.8,3.9s-.3,2-.9,3c-.6,1-1.7,2.3-3.2,4l-4.7,5v.2h9.1v2.2h-12.5v-1.7l6.7-7.3c1.2-1.4,2.1-2.4,2.5-3.1.4-.7.6-1.5.6-2.2s-.4-1.8-1.1-2.4c-.7-.7-1.6-1-2.7-1s-2.1.3-2.8,1c-.7.7-1,1.6-1,2.8h0s-2.3,0-2.3,0h0Z"/>
            <path class="cls-1" d="M65.7,45.7v-4h-9.4v-2.2c1.8-3.2,4.5-7.5,8.3-13.2h3.5v13.2h2.8v2.2h-2.8v4h-2.4ZM58.7,39.4v.2h7v-11h-.2c-2.1,3-4.4,6.6-6.8,10.8Z"/>
          </g>
        </g>
      </g>
    </g>
  </g>
</svg>