<?xml version="1.0" encoding="UTF-8"?>
<svg xmlns="http://www.w3.org/2000/svg" width="16" height="16" version="1.1" viewBox="0 0 16 16">
  <defs>
    <style>
      .cls-1 {
        fill: #fff;
      }
    </style>
  </defs>
  <!-- Generator: Adobe Illustrator 28.6.0, SVG Export Plug-In . SVG Version: 1.2.0 Build 709)  -->
  <g>
    <g id="Layer_1">
      <path class="cls-1" d="M6,9.6c0,0,0-.1.1-.2,2.1-2.1,4.2-4.2,6.2-6.2.5-.5,1.1-.5,1.6,0,.1.1.2.2.3.3.5.5.5,1.1,0,1.5-1.3,1.3-2.6,2.6-3.9,3.9-1.3,1.3-2.6,2.6-3.9,3.9-.4.4-.7.4-1.1,0-1.2-1.2-2.4-2.4-3.7-3.7-.5-.5-.5-1.1,0-1.6.1-.1.3-.3.4-.4.4-.4,1-.4,1.5,0,.8.8,1.5,1.5,2.3,2.3,0,0,0,0,.1.1Z"/>
    </g>
  </g>
</svg>