<?xml version="1.0" encoding="UTF-8"?>
<svg xmlns="http://www.w3.org/2000/svg" width="98" height="84" version="1.1" viewBox="0 0 98 84">
  <defs>
    <style>
      .cls-1 {
        fill: #fff;
      }

      .cls-2 {
        isolation: isolate;
      }

      .cls-3 {
        fill: #d1d0d0;
      }

      .cls-4 {
        fill: #3d63ae;
      }
    </style>
  </defs>
  <!-- Generator: Adobe Illustrator 28.6.0, SVG Export Plug-In . SVG Version: 1.2.0 Build 709)  -->
  <g>
    <g id="Layer_1">
      <g id="Layer_1-2" data-name="Layer_1">
        <g id="Layer_1-2">
          <g id="_x31_990">
            <rect class="cls-3" x="9.8" y="6" width="78.5" height="54.5"/>
            <rect class="cls-1" x="14.4" y="10.8" width="69.1" height="42"/>
            <polygon class="cls-3" points="32.6 59.7 25.8 77.7 34.4 75.1 40.1 82 48.3 59.7 32.6 59.7"/>
            <polygon class="cls-3" points="65.5 59.7 72.3 77.7 63.7 75.1 58 82 49.8 59.7 65.5 59.7"/>
            <g class="cls-2">
              <g class="cls-2">
                <path class="cls-4" d="M26.6,40.1v-14.6h-.2l-4.3,3.1v-2.2l4.5-3.2h2.1v16.9h-2.1Z"/>
                <path class="cls-4" d="M39.1,40.5c-1.4,0-2.7-.4-3.7-1.2s-1.6-1.9-1.9-3.2h2.2c.2.8.6,1.4,1.2,1.9s1.3.7,2.2.7c1.4,0,2.4-.6,3.2-1.8s1.2-2.9,1.2-5.2h-.2c-.4.8-1,1.5-1.8,1.9s-1.7.7-2.7.7c-1.6,0-2.9-.5-4-1.6s-1.6-2.4-1.6-4.1.6-3.1,1.7-4.2,2.5-1.6,4.3-1.6,2.4.3,3.3,1,1.7,1.6,2.2,2.9.8,2.9.8,4.7c0,2.9-.6,5.2-1.7,6.8s-2.7,2.4-4.8,2.4h.1ZM36.6,31.4c.7.7,1.6,1.1,2.7,1.1s2-.4,2.8-1.1,1.1-1.6,1.1-2.8-.4-2.1-1.1-2.8-1.6-1.1-2.7-1.1-2,.4-2.7,1.1-1.1,1.7-1.1,2.8.4,2.1,1.1,2.8h0Z"/>
                <path class="cls-4" d="M54.4,40.5c-1.4,0-2.7-.4-3.7-1.2s-1.6-1.9-1.9-3.2h2.2c.2.8.6,1.4,1.2,1.9s1.3.7,2.2.7c1.4,0,2.4-.6,3.2-1.8s1.2-2.9,1.2-5.2h-.2c-.4.8-1,1.5-1.8,1.9s-1.7.7-2.7.7c-1.6,0-2.9-.5-4-1.6s-1.6-2.4-1.6-4.1.6-3.1,1.7-4.2,2.5-1.6,4.3-1.6,2.4.3,3.3,1,1.7,1.6,2.2,2.9.8,2.9.8,4.7c0,2.9-.6,5.2-1.7,6.8s-2.7,2.4-4.8,2.4h0ZM51.9,31.4c.7.7,1.6,1.1,2.7,1.1s2-.4,2.8-1.1,1.1-1.6,1.1-2.8-.4-2.1-1.1-2.8-1.6-1.1-2.7-1.1-2,.4-2.7,1.1-1.1,1.7-1.1,2.8.4,2.1,1.1,2.8h0Z"/>
                <path class="cls-4" d="M69.9,40.5c-1.9,0-3.4-.8-4.4-2.3s-1.6-3.7-1.6-6.5.5-5,1.6-6.5,2.5-2.3,4.4-2.3,3.3.8,4.4,2.3,1.6,3.7,1.6,6.5-.5,5-1.6,6.5-2.5,2.3-4.4,2.3ZM67.2,36.8c.7,1.2,1.6,1.8,2.9,1.8s2.2-.6,2.9-1.8,1-2.9,1-5.2-.3-4-1-5.2-1.6-1.8-2.9-1.8-2.2.6-2.9,1.8-1,2.9-1,5.2.3,4,1,5.2Z"/>
              </g>
            </g>
          </g>
        </g>
      </g>
    </g>
  </g>
</svg>